<svg xmlns="http://www.w3.org/2000/svg" xmlns:xlink="http://www.w3.org/1999/xlink" contentStyleType="text/css" data-diagram-type="DESCRIPTION" height="1040px" preserveAspectRatio="none" style="width:1539px;height:1040px;background:#FAFAFA;" version="1.1" viewBox="0 0 1539 1040" width="1539px" zoomAndPan="magnify"><defs><filter height="300%" id="fi7tdopnxb2yi" width="300%" x="-1" y="-1"><feGaussianBlur result="blurOut" stdDeviation="2"/><feColorMatrix in="blurOut" result="blurOut2" type="matrix" values="0 0 0 0 0 0 0 0 0 0 0 0 0 0 0 0 0 0 .4 0"/><feOffset dx="4" dy="4" in="blurOut2" result="blurOut3"/><feBlend in="SourceGraphic" in2="blurOut3" mode="normal"/></filter></defs><g><rect fill="#FAFAFA" height="1040" style="stroke:none;stroke-width:1;" width="1539" x="0" y="0"/><!--entity FE--><g class="entity" data-entity="FE" data-source-line="11" data-uid="ent0006" id="entity_FE"><polygon fill="#FAFAFA" filter="url(#fi7tdopnxb2yi)" points="527.03,197.79,537.03,187.79,617.7663,187.79,617.7663,249.0791,607.7663,259.0791,527.03,259.0791,527.03,197.79" style="stroke:#181818;stroke-width:0.5;"/><line style="stroke:#181818;stroke-width:0.5;" x1="607.7663" x2="617.7663" y1="197.79" y2="187.79"/><line style="stroke:#181818;stroke-width:0.5;" x1="527.03" x2="607.7663" y1="197.79" y2="197.79"/><line style="stroke:#181818;stroke-width:0.5;" x1="607.7663" x2="607.7663" y1="197.79" y2="259.0791"/><text fill="#000000" font-family="Padauk" font-size="14" lengthAdjust="spacing" textLength="50.7363" x="542.03" y="221.5986">Frontend</text><text fill="#000000" font-family="Padauk" font-size="14" lengthAdjust="spacing" textLength="31.7734" x="542.03" y="242.2431">React</text></g><!--entity API--><g class="entity" data-entity="API" data-source-line="14" data-uid="ent0007" id="entity_API"><polygon fill="#FAFAFA" filter="url(#fi7tdopnxb2yi)" points="521.4,350.08,531.4,340.08,623.3883,340.08,623.3883,401.3691,613.3883,411.3691,521.4,411.3691,521.4,350.08" style="stroke:#181818;stroke-width:0.5;"/><line style="stroke:#181818;stroke-width:0.5;" x1="613.3883" x2="623.3883" y1="350.08" y2="340.08"/><line style="stroke:#181818;stroke-width:0.5;" x1="521.4" x2="613.3883" y1="350.08" y2="350.08"/><line style="stroke:#181818;stroke-width:0.5;" x1="613.3883" x2="613.3883" y1="350.08" y2="411.3691"/><text fill="#000000" font-family="Padauk" font-size="14" lengthAdjust="spacing" textLength="61.9883" x="536.4" y="373.8886">API Server</text><text fill="#000000" font-family="Padauk" font-size="14" lengthAdjust="spacing" textLength="43.9277" x="536.4" y="394.5331">FastAPI</text></g><!--entity Student--><g class="entity" data-entity="Student" data-source-line="5" data-uid="ent0002" id="entity_Student"><ellipse cx="572.39" cy="14" fill="#CBDB2A" rx="8" ry="8" style="stroke:#181818;stroke-width:0.5;"/><path d="M572.39,22 L572.39,49 M559.39,30 L585.39,30 M572.39,49 L559.39,64 M572.39,49 L585.39,64" fill="none" style="stroke:#181818;stroke-width:0.5;"/><text fill="#585858" font-family="Padauk" font-size="14" lengthAdjust="spacing" textLength="44.5156" x="539.68" y="79.3086">Student</text><text fill="#585858" font-family="Padauk" font-size="14" lengthAdjust="spacing" textLength="65.4199" x="539.68" y="99.9531">(End-User)</text></g><!--entity TaskRunner--><g class="entity" data-entity="TaskRunner" data-source-line="6" data-uid="ent0003" id="entity_TaskRunner"><ellipse cx="251.3968" cy="653.16" fill="#CBDB2A" rx="8" ry="8" style="stroke:#181818;stroke-width:0.5;"/><path d="M251.3968,661.16 L251.3968,688.16 M238.3968,669.16 L264.3968,669.16 M251.3968,688.16 L238.3968,703.16 M251.3968,688.16 L264.3968,703.16" fill="none" style="stroke:#181818;stroke-width:0.5;"/><text fill="#585858" font-family="Padauk" font-size="14" lengthAdjust="spacing" textLength="71.3535" x="215.72" y="718.4686">Task Runner</text></g><!--entity Scraper--><g class="entity" data-entity="Scraper" data-source-line="7" data-uid="ent0004" id="entity_Scraper"><ellipse cx="1081.398" cy="966.74" fill="#CBDB2A" rx="8" ry="8" style="stroke:#181818;stroke-width:0.5;"/><path d="M1081.398,974.74 L1081.398,1001.74 M1068.398,982.74 L1094.398,982.74 M1081.398,1001.74 L1068.398,1016.74 M1081.398,1001.74 L1094.398,1016.74" fill="none" style="stroke:#181818;stroke-width:0.5;"/><text fill="#585858" font-family="Padauk" font-size="14" lengthAdjust="spacing" textLength="43.9961" x="1059.4" y="1032.0486">Scraper</text></g><!--entity UIArchitect--><g class="entity" data-entity="UIArchitect" data-source-line="8" data-uid="ent0005" id="entity_UIArchitect"><ellipse cx="702.3954" cy="653.16" fill="#CBDB2A" rx="8" ry="8" style="stroke:#181818;stroke-width:0.5;"/><path d="M702.3954,661.16 L702.3954,688.16 M689.3954,669.16 L715.3954,669.16 M702.3954,688.16 L689.3954,703.16 M702.3954,688.16 L715.3954,703.16" fill="none" style="stroke:#181818;stroke-width:0.5;"/><text fill="#585858" font-family="Padauk" font-size="14" lengthAdjust="spacing" textLength="68.5508" x="668.12" y="718.4686">UI Architect</text></g><!--entity VS--><g class="entity" data-entity="VS" data-source-line="17" data-uid="ent0008" id="entity_VS"><polygon fill="#FAFAFA" filter="url(#fi7tdopnxb2yi)" points="16,826.12,26,816.12,128.7891,816.12,128.7891,877.4091,118.7891,887.4091,16,887.4091,16,826.12" style="stroke:#181818;stroke-width:0.5;"/><line style="stroke:#181818;stroke-width:0.5;" x1="118.7891" x2="128.7891" y1="826.12" y2="816.12"/><line style="stroke:#181818;stroke-width:0.5;" x1="16" x2="118.7891" y1="826.12" y2="826.12"/><line style="stroke:#181818;stroke-width:0.5;" x1="118.7891" x2="118.7891" y1="826.12" y2="887.4091"/><text fill="#000000" font-family="Padauk" font-size="14" lengthAdjust="spacing" textLength="72.7891" x="31" y="849.9286">Vector Store</text><text fill="#000000" font-family="Padauk" font-size="14" lengthAdjust="spacing" textLength="61.4414" x="31" y="870.5731">ChromaDB</text></g><!--entity EMB--><g class="entity" data-entity="EMB" data-source-line="18" data-uid="ent0009" id="entity_EMB"><polygon fill="#FAFAFA" filter="url(#fi7tdopnxb2yi)" points="174.37,826.12,184.37,816.12,324.4149,816.12,324.4149,877.4091,314.4149,887.4091,174.37,887.4091,174.37,826.12" style="stroke:#181818;stroke-width:0.5;"/><line style="stroke:#181818;stroke-width:0.5;" x1="314.4149" x2="324.4149" y1="826.12" y2="816.12"/><line style="stroke:#181818;stroke-width:0.5;" x1="174.37" x2="314.4149" y1="826.12" y2="826.12"/><line style="stroke:#181818;stroke-width:0.5;" x1="314.4149" x2="314.4149" y1="826.12" y2="887.4091"/><text fill="#000000" font-family="Padauk" font-size="14" lengthAdjust="spacing" textLength="103.6328" x="189.37" y="849.9286">Embedding Model</text><text fill="#000000" font-family="Padauk" font-size="14" lengthAdjust="spacing" textLength="110.0449" x="189.37" y="870.5731">(Ollama / OpenAI)</text></g><!--entity SCH--><g class="entity" data-entity="SCH" data-source-line="19" data-uid="ent0010" id="entity_SCH"><polygon fill="#FAFAFA" filter="url(#fi7tdopnxb2yi)" points="193.17,502.37,203.17,492.37,343.6114,492.37,343.6114,553.6591,333.6114,563.6591,193.17,563.6591,193.17,502.37" style="stroke:#181818;stroke-width:0.5;"/><line style="stroke:#181818;stroke-width:0.5;" x1="333.6114" x2="343.6114" y1="502.37" y2="492.37"/><line style="stroke:#181818;stroke-width:0.5;" x1="193.17" x2="333.6114" y1="502.37" y2="502.37"/><line style="stroke:#181818;stroke-width:0.5;" x1="333.6114" x2="333.6114" y1="502.37" y2="563.6591"/><text fill="#000000" font-family="Padauk" font-size="14" lengthAdjust="spacing" textLength="110.4414" x="208.17" y="526.1786">Scheduler / Queue</text><text fill="#000000" font-family="Padauk" font-size="14" lengthAdjust="spacing" textLength="84.2461" x="208.17" y="546.8231">Celery + Redis</text></g><!--entity SCR--><g class="entity" data-entity="SCR" data-source-line="20" data-uid="ent0011" id="entity_SCR"><polygon fill="#FAFAFA" filter="url(#fi7tdopnxb2yi)" points="1017.76,659.34,1027.76,649.34,1145.0276,649.34,1145.0276,710.6291,1135.0276,720.6291,1017.76,720.6291,1017.76,659.34" style="stroke:#181818;stroke-width:0.5;"/><line style="stroke:#181818;stroke-width:0.5;" x1="1135.0276" x2="1145.0276" y1="659.34" y2="649.34"/><line style="stroke:#181818;stroke-width:0.5;" x1="1017.76" x2="1135.0276" y1="659.34" y2="659.34"/><line style="stroke:#181818;stroke-width:0.5;" x1="1135.0276" x2="1135.0276" y1="659.34" y2="720.6291"/><text fill="#000000" font-family="Padauk" font-size="14" lengthAdjust="spacing" textLength="87.2676" x="1032.76" y="683.1486">Scraper Engine</text><text fill="#000000" font-family="Padauk" font-size="14" lengthAdjust="spacing" textLength="59.1309" x="1032.76" y="703.7931">Playwright</text></g><!--entity ST--><g class="entity" data-entity="ST" data-source-line="21" data-uid="ent0012" id="entity_ST"><path d="M359.42,816.3 C359.42,806.3 412.3975,806.3 412.3975,806.3 C412.3975,806.3 465.3751,806.3 465.3751,816.3 L465.3751,887.2336 C465.3751,897.2336 412.3975,897.2336 412.3975,897.2336 C412.3975,897.2336 359.42,897.2336 359.42,887.2336 L359.42,816.3" fill="#888888" filter="url(#fi7tdopnxb2yi)" style="stroke:#181818;stroke-width:0.5;"/><path d="M359.42,816.3 C359.42,826.3 412.3975,826.3 412.3975,826.3 C412.3975,826.3 465.3751,826.3 465.3751,816.3" fill="none" style="stroke:#181818;stroke-width:0.5;"/><text fill="#FAFAFA" font-family="Padauk" font-size="14" lengthAdjust="spacing" textLength="44.5977" x="369.42" y="844.1086">Storage</text><text fill="#FAFAFA" font-family="Padauk" font-size="14" lengthAdjust="spacing" textLength="85.9551" x="369.42" y="864.7531">(PostgreSQL +</text><text fill="#FAFAFA" font-family="Padauk" font-size="14" lengthAdjust="spacing" textLength="38.6914" x="369.42" y="885.3977">MinIO)</text></g><!--link Student to FE--><g class="link" data-entity-1="Student" data-entity-2="FE" data-source-line="24" data-uid="lnk13" id="link_Student_FE"><path d="M569.86,107.05 C569.32,123.24 569.01,141.28 569.39,157.79 C569.62,167.45 569.7502,171.9165 570.2002,181.5565" fill="none" id="Student-to-FE" style="stroke:#444444;stroke-width:1;stroke-dasharray:7.0,7.0;"/><polygon fill="#444444" points="570.48,187.55,574.056,178.3733,570.2469,182.5554,566.0647,178.7463,570.48,187.55" style="stroke:#444444;stroke-width:1;"/><text fill="#000000" font-family="Padauk" font-size="13" lengthAdjust="spacing" textLength="122.5986" x="570.39" y="150.6123">(1) Upload PDFs (.zip)</text></g><!--link Student to FE--><g class="link" data-entity-1="Student" data-entity-2="FE" data-source-line="34" data-uid="lnk21" id="link_Student_FE"><path d="M539.23,73.98 C507.66,92.46 467.31,124.04 484.39,157.79 C493.56,175.89 505.3603,186.9409 521.9003,197.4109" fill="none" id="Student-to-FE-1" style="stroke:#444444;stroke-width:2;"/><polygon fill="#444444" points="526.97,200.62,521.505,192.4265,522.7453,197.9457,517.2261,199.1861,526.97,200.62" style="stroke:#444444;stroke-width:2;"/><text fill="#000000" font-family="Padauk" font-size="13" lengthAdjust="spacing" textLength="43.4941" x="485.39" y="150.6123">(2) Ask:</text><text fill="#000000" font-family="Padauk" font-size="13" lengthAdjust="spacing" textLength="109.2813" x="400.0335" y="191.6725">'Explain chapter 3...'</text></g><!--link FE to Student--><g class="link" data-entity-1="FE" data-entity-2="Student" data-source-line="45" data-uid="lnk30" id="link_FE_Student"><path d="M617.97,211.75 C646.17,202.52 680.18,186.07 697.39,157.79 C723.54,114.83 656.3606,84.3516 611.1006,68.9616" fill="none" id="FE-to-Student" style="stroke:#444444;stroke-width:2;"/><polygon fill="#444444" points="605.42,67.03,612.6531,73.7144,610.1538,68.6397,615.2286,66.1403,605.42,67.03" style="stroke:#444444;stroke-width:2;"/><text fill="#000000" font-family="Padauk" font-size="13" lengthAdjust="spacing" textLength="122.1797" x="703.91" y="150.6123">Masonry / adaptive UI</text></g><!--link FE to API--><g class="link" data-entity-1="FE" data-entity-2="API" data-source-line="25" data-uid="lnk14" id="link_FE_API"><path d="M526.87,228.23 C487.39,234.21 432.46,249.58 405.39,289.08 C373.53,335.58 455.0795,357.3662 515.1495,367.2462" fill="none" id="FE-to-API" style="stroke:#444444;stroke-width:1;stroke-dasharray:7.0,7.0;"/><polygon fill="#444444" points="521.07,368.22,512.8385,362.8124,516.1363,367.4085,511.5401,370.7063,521.07,368.22" style="stroke:#444444;stroke-width:1;"/><text fill="#000000" font-family="Padauk" font-size="13" lengthAdjust="spacing" textLength="122.8271" x="406.39" y="302.9023">HTTP POST /materials</text></g><!--link FE to API--><g class="link" data-entity-1="FE" data-entity-2="API" data-source-line="35" data-uid="lnk22" id="link_FE_API"><path d="M570.48,259.32 C570.03,268.95 569.62,279.42 569.39,289.08 C569.01,305.74 569.2519,318.2164 569.9719,333.7364" fill="none" id="FE-to-API-1" style="stroke:#444444;stroke-width:2;"/><polygon fill="#444444" points="570.25,339.73,573.8286,330.5543,570.0183,334.7354,565.8372,330.925,570.25,339.73" style="stroke:#444444;stroke-width:2;"/><text fill="#000000" font-family="Padauk" font-size="13" lengthAdjust="spacing" textLength="128.0449" x="570.39" y="302.9023">(3) HTTP POST /digest</text></g><!--link API to FE--><g class="link" data-entity-1="API" data-entity-2="FE" data-source-line="42" data-uid="lnk29" id="link_API_FE"><path d="M623.53,363.2 C669.44,350.23 726.35,326 703.39,289.08 C684.85,259.25 653.7843,244.4694 623.8843,235.6394" fill="none" id="API-to-FE" style="stroke:#444444;stroke-width:2;"/><polygon fill="#444444" points="618.13,233.94,625.6286,240.3252,622.9253,235.3561,627.8944,232.6528,618.13,233.94" style="stroke:#444444;stroke-width:2;"/><text fill="#000000" font-family="Padauk" font-size="13" lengthAdjust="spacing" textLength="279.627" x="709.65" y="302.9023">(10) Final JSON Array&lt;{weight, content, source}&gt;</text></g><!--link API to SCH--><g class="link" data-entity-1="API" data-entity-2="SCH" data-source-line="26" data-uid="lnk15" id="link_API_SCH"><path d="M521.02,379.93 C442.14,386.04 297.01,402.4 265.39,441.37 C254.15,455.23 253.0136,469.0192 256.1436,486.0192" fill="none" id="API-to-SCH" style="stroke:#444444;stroke-width:1;stroke-dasharray:7.0,7.0;"/><polygon fill="#444444" points="257.23,491.92,259.5342,482.3445,256.3246,487.0027,251.6665,483.7931,257.23,491.92" style="stroke:#444444;stroke-width:1;"/><text fill="#000000" font-family="Padauk" font-size="13" lengthAdjust="spacing" textLength="149.043" x="266.39" y="455.1923">enqueue &lt;update_vstore&gt;</text></g><!--link SCH to TaskRunner--><g class="link" data-entity-1="SCH" data-entity-2="TaskRunner" data-source-line="27" data-uid="lnk16" id="link_SCH_TaskRunner"><path d="M323.34,564.13 C338.85,578.63 349.35,596.33 340.39,614.66 C329.3,637.36 311.9426,651.7058 292.3326,663.4058" fill="none" id="SCH-to-TaskRunner" style="stroke:#444444;stroke-width:1;stroke-dasharray:7.0,7.0;"/><polygon fill="#444444" points="287.18,666.48,296.9584,665.3037,291.4738,663.9182,292.8594,658.4336,287.18,666.48" style="stroke:#444444;stroke-width:1;"/><text fill="#000000" font-family="Padauk" font-size="13" lengthAdjust="spacing" textLength="38.4414" x="344.68" y="607.4823">run job</text></g><!--link TaskRunner to SCH--><g class="link" data-entity-1="TaskRunner" data-entity-2="SCH" data-source-line="31" data-uid="lnk20" id="link_TaskRunner_SCH"><path d="M243.97,644.19 C242.14,628.37 241.45,610.07 244.39,593.66 C246.17,583.76 247.2933,579.0291 250.7833,569.5691" fill="none" id="TaskRunner-to-SCH" style="stroke:#444444;stroke-width:2;"/><polygon fill="#444444" points="252.86,563.94,245.9922,570.9992,251.1294,568.631,253.4977,573.7682,252.86,563.94" style="stroke:#444444;stroke-width:2;"/><text fill="#000000" font-family="Padauk" font-size="13" lengthAdjust="spacing" textLength="86.874" x="245.39" y="607.4823">job status: done</text></g><!--link TaskRunner to EMB--><g class="link" data-entity-1="TaskRunner" data-entity-2="EMB" data-source-line="28" data-uid="lnk17" id="link_TaskRunner_EMB"><path d="M250.8,725.57 C250.66,735.29 250.51,745.67 250.39,755.3 C250.14,775.36 249.9698,791.7803 249.7898,809.8503" fill="none" id="TaskRunner-to-EMB" style="stroke:#444444;stroke-width:1;stroke-dasharray:7.0,7.0;"/><polygon fill="#444444" points="249.73,815.85,253.8194,806.8903,249.7798,810.8502,245.8198,806.8106,249.73,815.85" style="stroke:#444444;stroke-width:1;"/><text fill="#000000" font-family="Padauk" font-size="13" lengthAdjust="spacing" textLength="117.2539" x="251.39" y="769.1223">Generate embeddings</text></g><!--link TaskRunner to VS--><g class="link" data-entity-1="TaskRunner" data-entity-2="VS" data-source-line="29" data-uid="lnk18" id="link_TaskRunner_VS"><path d="M215.3,712.11 C198.7,724.61 179.05,740.14 162.39,755.3 C141.5,774.31 123.7677,792.8528 106.8677,811.5128" fill="none" id="TaskRunner-to-VS" style="stroke:#444444;stroke-width:1;stroke-dasharray:7.0,7.0;"/><polygon fill="#444444" points="102.84,815.96,111.8464,811.9744,106.1964,812.254,105.9168,806.6041,102.84,815.96" style="stroke:#444444;stroke-width:1;"/><text fill="#000000" font-family="Padauk" font-size="13" lengthAdjust="spacing" textLength="78.5713" x="163.39" y="769.1223">Upsert vectors</text></g><!--link TaskRunner to ST--><g class="link" data-entity-1="TaskRunner" data-entity-2="ST" data-source-line="30" data-uid="lnk19" id="link_TaskRunner_ST"><path d="M287.44,698.93 C314.28,710.18 350.16,728.86 373.39,755.3 C386.04,769.69 392.9454,783.0677 399.0054,800.3577" fill="none" id="TaskRunner-to-ST" style="stroke:#444444;stroke-width:1;stroke-dasharray:7.0,7.0;"/><polygon fill="#444444" points="400.99,806.02,401.788,796.2035,399.3362,801.3014,394.2383,798.8496,400.99,806.02" style="stroke:#444444;stroke-width:1;"/><text fill="#000000" font-family="Padauk" font-size="13" lengthAdjust="spacing" textLength="158.3613" x="388.72" y="769.1223">Save metadata / text chunks</text></g><!--link API to VS--><g class="link" data-entity-1="API" data-entity-2="VS" data-source-line="36" data-uid="lnk23" id="link_API_VS"><path d="M521.09,380.42 C455.54,386.59 339.66,402.42 248.39,441.37 C211.99,456.9 204.89,465.98 175.39,492.37 C130.73,532.32 109.05,538.18 86.39,593.66 C55.98,668.15 60.7185,759.04 66.6285,809.98" fill="none" id="API-to-VS" style="stroke:#444444;stroke-width:2;"/><polygon fill="#444444" points="67.32,815.94,70.2561,806.539,66.7438,810.9733,62.3094,807.461,67.32,815.94" style="stroke:#444444;stroke-width:2;"/><text fill="#000000" font-family="Padauk" font-size="13" lengthAdjust="spacing" textLength="146.2246" x="87.39" y="607.4823">(4) similarity search (RAG)</text></g><!--link API to UIArchitect--><g class="link" data-entity-1="API" data-entity-2="UIArchitect" data-source-line="37" data-uid="lnk24" id="link_API_UIArchitect"><path d="M520.94,406.92 C492,427.06 458.54,456.4 442.39,492.37 C429.42,521.27 425.33,536.96 442.39,563.66 C492.75,642.45 603.4445,669.4672 661.8345,678.7572" fill="none" id="API-to-UIArchitect" style="stroke:#444444;stroke-width:2;"/><polygon fill="#444444" points="667.76,679.7,659.5003,674.3355,662.8221,678.9144,658.2433,682.2362,667.76,679.7" style="stroke:#444444;stroke-width:2;"/><text fill="#000000" font-family="Padauk" font-size="13" lengthAdjust="spacing" textLength="188.2334" x="443.39" y="531.3323">(5) decide layout + component list</text></g><!--link UIArchitect to API--><g class="link" data-entity-1="UIArchitect" data-entity-2="API" data-source-line="38" data-uid="lnk25" id="link_UIArchitect_API"><path d="M692.35,644.51 C681.69,605.1 663.25,543.24 640.39,492.37 C627.75,464.22 613.1951,439.2959 598.9851,416.9059" fill="none" id="UIArchitect-to-API" style="stroke:#444444;stroke-width:2;"/><polygon fill="#444444" points="595.77,411.84,597.2154,421.5822,598.4493,416.0616,603.9699,417.2954,595.77,411.84" style="stroke:#444444;stroke-width:2;"/><text fill="#000000" font-family="Padauk" font-size="13" lengthAdjust="spacing" textLength="307.8613" x="668.05" y="531.3323">(6) JSON layout plan Array&lt;{weight, content, source}&gt;</text></g><!--link API to SCR--><g class="link" data-entity-1="API" data-entity-2="SCR" data-source-line="39" data-uid="lnk26" id="link_API_SCR"><path d="M623.68,378.23 C708.07,383.28 877.49,404.51 984.39,492.37 C1034.08,533.21 1059.2201,600.2356 1071.4001,643.3856" fill="none" id="API-to-SCR" style="stroke:#444444;stroke-width:2;"/><polygon fill="#444444" points="1073.03,649.16,1074.4347,639.4118,1071.6717,644.348,1066.7355,641.5851,1073.03,649.16" style="stroke:#444444;stroke-width:2;"/><text fill="#000000" font-family="Padauk" font-size="13" lengthAdjust="spacing" textLength="236.7422" x="1040.38" y="531.3323">(7) need external sources for empty comps</text></g><!--link SCR to Scraper--><g class="link" data-entity-1="SCR" data-entity-2="Scraper" data-source-line="40" data-uid="lnk27" id="link_SCR_Scraper"><path d="M1081.39,721.12 C1081.39,779.6 1081.39,890.55 1081.39,951.91" fill="none" id="SCR-to-Scraper" style="stroke:#444444;stroke-width:2;"/><polygon fill="#444444" points="1081.39,957.91,1085.39,948.91,1081.39,952.91,1077.39,948.91,1081.39,957.91" style="stroke:#444444;stroke-width:2;"/><text fill="#000000" font-family="Padauk" font-size="13" lengthAdjust="spacing" textLength="155.3145" x="1082.39" y="855.0923">(8) fetch URLs with citations</text></g><!--link Scraper to API--><g class="link" data-entity-1="Scraper" data-entity-2="API" data-source-line="41" data-uid="lnk28" id="link_Scraper_API"><path d="M1103.75,996.82 C1171.89,993.28 1372.39,972.68 1372.39,852.77 C1372.39,527.01 1372.39,527.01 1372.39,527.01 C1372.39,450.52 806.1984,396.4289 629.6384,381.3989" fill="none" id="Scraper-to-API" style="stroke:#444444;stroke-width:2;"/><polygon fill="#444444" points="623.66,380.89,632.2883,385.639,628.642,381.3141,632.9668,377.6678,623.66,380.89" style="stroke:#444444;stroke-width:2;"/><text fill="#000000" font-family="Padauk" font-size="13" lengthAdjust="spacing" textLength="158.0693" x="1373.39" y="688.3023">(9) enriched component data</text></g><!--link UIArchitect to Scraper--><!--SRC=[dLJDZjis4BxhAIPxMGk9fFodDO85d5qxSP5TEvQzbxeekEAinQn4gYHbPnC4o0i4GP00EIH5B-qxz7do0kqZT2ZHNgSvvCS7s-HyGtxppSUv96HMr1nhNK1kRMMwIQBPAbu8czSdjK6TAMbHsZXJPL9fjKGLPImHdFQ4FKyqdfeaHyPDKZ8XFIGMTLa4mIxy-yVhFm5w-zFH98NeEpu1owpIi9FQsbqvbvs-vD6CY8Kxm0pu_JLioimPJ6efKJTXjswNcuCopIeVzV_NeTaGUZhBXSNCDl7PSBDkYtdrxf-_Nm4SZGxwAIImFpgQzeP7_Q-kBP2A8-mCT2Cgdyi9Cd_Ne0_FWkU1H_J6GqXHBr7FvO0PI-i6vVQtOCVOC4_f2-ToFzUgP0Vt6kHnwZ7zyWGv5t81XxGkIC5HKR2I4VzHXR8tR8Ni7zxp2McM8wyBr8HuL6FjJaPQdiDbc20NfjLk_y46twW8VRaGai3ZWfslj5ZarWCd0MUMdJ3Zm4ILBGZL6IjZ5nhJHm_XybmU2ZaS-PPEMx7V_0Kmgmh5E9mMQlLjzWcyCI2EzvosNUXS2zV7ZGy61ZhnKr650SKSn0dRXGVJwHZ6etGAv6QBMh3212xa85GnGL3-vZI1ktL5LU6lI-F4tmjSrA4k74TWNKjuh4w2hKs78QqfU1zfJKS0hZja_WyyJWatgyZj5fPDhp-34DSkf6o9KA9bJcXgcyKd5hAybcUVuADeNGMH0cEPhKqNk9BOAlxs9S21MA2ne97AfDzlK7uZURHM_7e8FNFMXOylFkpsdrG53GXYnIfI5cx4SRmB5FhTjS0nQrlGkH5kju4tT9eUH5wFpiqGZ2X5mJHD8338w952PzAx7xOuTzZMqtKfjqBWcD7K0ZAdgYrPcGPQHPKJtqBG3Ti95sHkX_1JEZfQPr49acQ4PkTtdwtGMVmA-05v1OogTORFzov8aFNT8NT2a8WSg2ce9Iiyqi0flLqiAoh2aJ61mxU9_abHyWyXdAAb0cUJXmPMD9SX4zGveIGbU5oqfT-F8NbK2_U8jsfqnl34Dk_XQWW3uVWq9NwnBBB8n_TlcW7O3B289XZvHFAMm5UQn3TxxPKk73AZ90sN1CYzbHNavDam-BGVF-U24_mNhbRoGfxWFm00]--></g></svg>