<svg xmlns="http://www.w3.org/2000/svg" xmlns:xlink="http://www.w3.org/1999/xlink" contentStyleType="text/css" data-diagram-type="DESCRIPTION" height="558px" preserveAspectRatio="none" style="width:488px;height:558px;background:#FAFAFA;" version="1.1" viewBox="0 0 488 558" width="488px" zoomAndPan="magnify"><defs><filter height="300%" id="f3ouhm0lmg42t" width="300%" x="-1" y="-1"><feGaussianBlur result="blurOut" stdDeviation="2"/><feColorMatrix in="blurOut" result="blurOut2" type="matrix" values="0 0 0 0 0 0 0 0 0 0 0 0 0 0 0 0 0 0 .4 0"/><feOffset dx="4" dy="4" in="blurOut2" result="blurOut3"/><feBlend in="SourceGraphic" in2="blurOut3" mode="normal"/></filter></defs><g><rect fill="#FAFAFA" height="558" style="stroke:none;stroke-width:1;" width="488" x="0" y="0"/><!--entity User--><g class="entity" data-entity="User" data-source-line="4" data-uid="ent0002" id="entity_User"><ellipse cx="228.48" cy="14" fill="#CBDB2A" rx="8" ry="8" style="stroke:#181818;stroke-width:0.5;"/><path d="M228.48,22 L228.48,49 M215.48,30 L241.48,30 M228.48,49 L215.48,64 M228.48,49 L241.48,64" fill="none" style="stroke:#181818;stroke-width:0.5;"/><text fill="#585858" font-family="Padauk" font-size="14" lengthAdjust="spacing" textLength="26.2637" x="215.3482" y="79.3086">User</text></g><!--entity UI--><g class="entity" data-entity="UI" data-source-line="5" data-uid="ent0003" id="entity_UI"><rect fill="#005F7F" filter="url(#f3ouhm0lmg42t)" height="71.2891" rx="5" ry="5" style="stroke:#181818;stroke-width:0.5;" width="89.0684" x="183.95" y="167.14"/><rect fill="#005F7F" height="10" style="stroke:#181818;stroke-width:0.5;" width="15" x="253.0184" y="172.14"/><rect fill="#005F7F" height="2" style="stroke:#181818;stroke-width:0.5;" width="4" x="251.0184" y="174.14"/><rect fill="#005F7F" height="2" style="stroke:#181818;stroke-width:0.5;" width="4" x="251.0184" y="178.14"/><text fill="#FAFAFA" font-family="Padauk" font-size="14" lengthAdjust="spacing" textLength="49.0684" x="198.95" y="200.9486">React UI</text><text fill="#FAFAFA" font-family="Padauk" font-size="14" lengthAdjust="spacing" textLength="32.6211" x="198.95" y="221.5931">(Vite)</text></g><!--entity API--><g class="entity" data-entity="API" data-source-line="6" data-uid="ent0004" id="entity_API"><rect fill="#005F7F" filter="url(#f3ouhm0lmg42t)" height="50.6445" rx="5" ry="5" style="stroke:#181818;stroke-width:0.5;" width="102.4258" x="121.27" y="319.43"/><rect fill="#005F7F" height="10" style="stroke:#181818;stroke-width:0.5;" width="15" x="203.6958" y="324.43"/><rect fill="#005F7F" height="2" style="stroke:#181818;stroke-width:0.5;" width="4" x="201.6958" y="326.43"/><rect fill="#005F7F" height="2" style="stroke:#181818;stroke-width:0.5;" width="4" x="201.6958" y="330.43"/><text fill="#FAFAFA" font-family="Padauk" font-size="14" lengthAdjust="spacing" textLength="62.4258" x="136.27" y="353.2386">Fastify API</text></g><!--entity VS--><g class="entity" data-entity="VS" data-source-line="7" data-uid="ent0005" id="entity_VS"><rect fill="#005F7F" filter="url(#f3ouhm0lmg42t)" height="71.2891" rx="5" ry="5" style="stroke:#181818;stroke-width:0.5;" width="76.9277" x="265.02" y="461.4"/><rect fill="#005F7F" height="10" style="stroke:#181818;stroke-width:0.5;" width="15" x="321.9477" y="466.4"/><rect fill="#005F7F" height="2" style="stroke:#181818;stroke-width:0.5;" width="4" x="319.9477" y="468.4"/><rect fill="#005F7F" height="2" style="stroke:#181818;stroke-width:0.5;" width="4" x="319.9477" y="472.4"/><text fill="#FAFAFA" font-family="Padauk" font-size="14" lengthAdjust="spacing" textLength="36.9277" x="280.02" y="495.2086">Vector</text><text fill="#FAFAFA" font-family="Padauk" font-size="14" lengthAdjust="spacing" textLength="30.6934" x="280.02" y="515.8531">Store</text></g><!--entity MD--><g class="entity" data-entity="MD" data-source-line="8" data-uid="ent0006" id="entity_MD"><path d="M363.66,177.64 C363.66,167.64 389.4852,167.64 389.4852,167.64 C389.4852,167.64 415.3104,167.64 415.3104,177.64 L415.3104,227.9291 C415.3104,237.9291 389.4852,237.9291 389.4852,237.9291 C389.4852,237.9291 363.66,237.9291 363.66,227.9291 L363.66,177.64" fill="#888888" filter="url(#f3ouhm0lmg42t)" style="stroke:#181818;stroke-width:0.5;"/><path d="M363.66,177.64 C363.66,187.64 389.4852,187.64 389.4852,187.64 C389.4852,187.64 415.3104,187.64 415.3104,177.64" fill="none" style="stroke:#181818;stroke-width:0.5;"/><text fill="#FAFAFA" font-family="Padauk" font-size="14" lengthAdjust="spacing" textLength="28.3965" x="373.66" y="205.4486">Docs</text><text fill="#FAFAFA" font-family="Padauk" font-size="14" lengthAdjust="spacing" textLength="31.6504" x="373.66" y="226.0931">(.md)</text></g><!--entity LLM--><g class="entity" data-entity="LLM" data-source-line="9" data-uid="ent0007" id="entity_LLM"><path d="M61.9273,461.1976 C64.8287,453.4436 70.6642,453.2159 75.4988,459.302 C77.4663,453.1016 81.558,452.0945 86.3406,456.3958 C89.8933,450.0699 93.5895,451.0704 97.9314,455.5491 C100.5062,450.3449 106.1331,449.3183 109.5042,454.6766 C111.179,447.6229 116.2863,446.5938 121.3278,451.2883 C126.2191,446.6149 131.0843,447.4349 132.5875,454.5298 C135.77,449.5171 141.4585,449.3754 144.2156,454.995 C149.0544,448.7248 154.1509,450.468 156.9576,457.0152 C161.5477,451.4781 166.4133,452.8654 168.3866,459.477 C172.9547,454.2563 178.1618,455.1612 181.1753,461.2369 C186.7564,464.4488 187.89,468.6738 183.0282,473.4678 C189.6251,475.2606 190.9756,480.4906 185.6478,484.9937 C192.7968,487.3814 194.0202,492.1681 188.3268,497.3421 C192.8501,502.2653 192.836,506.6039 186.3299,509.7524 C192.4965,514.7737 191.2809,520.7156 183.6852,522.9867 C187.8539,527.4527 186.8099,533.2155 180.7274,535.1986 C178.4383,540.495 172.8428,541.96 168.8412,537.2282 C166.7002,544.4709 160.9909,544.2976 156.3485,539.9165 C153.3583,544.608 148.9842,546.462 145.2665,540.6867 C143.2584,546.4577 138.0863,547.7781 134.4077,542.2992 C131.3997,548.976 127.4092,551.3565 121.4856,545.2454 C117.5124,550.2818 111.5107,550.0376 109.3928,543.3343 C104.1673,547.7946 100.6836,546.2837 97.7513,540.6813 C94.1916,546.7241 88.8635,546.2935 85.7727,540.2179 C80.5083,544.5906 77.4453,542.6297 75.3472,536.9381 C71.2627,543.5218 65.2595,542.0702 62.5346,535.6033 C56.0468,533.7603 53.8042,527.8744 59.6695,523.1821 C52.2709,521.6423 51.104,515.4949 55.9412,510.3892 C49.8457,507.7722 48.6539,503.598 54.0532,499.0647 C48.6638,494.6546 49.2975,488.1111 56.3769,485.9022 C52.0201,480.4668 52.2389,474.0773 60.5081,472.5479 C55.034,467.9227 56.1209,464.4123 61.9273,461.1976" fill="#FAFAFA" style="stroke:#00BAC6;stroke-width:0.5;"/><text fill="#000000" font-family="Padauk" font-size="14" lengthAdjust="spacing" textLength="45.5684" x="68.75" y="479.8886">Llama 3</text><text fill="#000000" font-family="Padauk" font-size="14" lengthAdjust="spacing" textLength="103.4551" x="68.75" y="500.5331">(via Ollama or HF</text><text fill="#000000" font-family="Padauk" font-size="14" lengthAdjust="spacing" textLength="54.9063" x="68.75" y="521.1777">endpoint)</text></g><!--entity ING--><g class="entity" data-entity="ING" data-source-line="10" data-uid="ent0008" id="entity_ING"><path d="M344.31,329.43 L434.6596,329.43 C439.6596,329.43 439.6596,344.7523 439.6596,344.7523 C439.6596,344.7523 439.6596,360.0745 434.6596,360.0745 L344.31,360.0745 C339.31,360.0745 339.31,344.7523 339.31,344.7523 C339.31,344.7523 339.31,329.43 344.31,329.43" fill="#CBDB2A" style="stroke:#181818;stroke-width:0.5;"/><path d="M434.6596,329.43 C429.6596,329.43 429.6596,344.7523 429.6596,344.7523 C429.6596,360.0745 434.6596,360.0745 434.6596,360.0745" fill="none" style="stroke:#181818;stroke-width:0.5;"/><text fill="#121212" font-family="Padauk" font-size="14" lengthAdjust="spacing" textLength="80.3496" x="344.31" y="348.2386">Ingest Worker</text></g><!--link User to UI--><g class="link" data-entity-1="User" data-entity-2="UI" data-source-line="12" data-uid="lnk9" id="link_User_UI"><path d="M228.48,86.33 C228.48,111.17 228.48,136.92 228.48,160.84" fill="none" id="User-to-UI" style="stroke:#444444;stroke-width:2;"/><polygon fill="#444444" points="228.48,166.84,232.48,157.84,228.48,161.84,224.48,157.84,228.48,166.84" style="stroke:#444444;stroke-width:2;"/><text fill="#000000" font-family="Padauk" font-size="13" lengthAdjust="spacing" textLength="47.0488" x="234.2788" y="129.9623">Question</text></g><!--link UI to API--><g class="link" data-entity-1="UI" data-entity-2="API" data-source-line="13" data-uid="lnk10" id="link_UI_API"><path d="M229.52,238.75 C228.83,254.77 226.32,273.66 219.48,289.43 C214.82,300.19 211.2532,305.9097 203.5332,314.4897" fill="none" id="UI-to-API" style="stroke:#444444;stroke-width:2;"/><polygon fill="#444444" points="199.52,318.95,208.5133,314.9351,202.8643,315.2331,202.5663,309.5841,199.52,318.95" style="stroke:#444444;stroke-width:2;"/><text fill="#000000" font-family="Padauk" font-size="13" lengthAdjust="spacing" textLength="51.1875" x="226.78" y="282.2523">/ask?q=...</text></g><!--link API to UI--><g class="link" data-entity-1="API" data-entity-2="UI" data-source-line="17" data-uid="lnk14" id="link_API_UI"><path d="M148.04,319.17 C136.38,304.38 126.71,285.22 135.48,268.43 C145.77,248.74 159.8914,236.8184 178.2714,226.3084" fill="none" id="API-to-UI" style="stroke:#444444;stroke-width:2;"/><polygon fill="#444444" points="183.48,223.33,173.6815,224.3251,179.1395,225.812,177.6527,231.2699,183.48,223.33" style="stroke:#444444;stroke-width:2;"/><text fill="#000000" font-family="Padauk" font-size="13" lengthAdjust="spacing" textLength="74.6357" x="136.48" y="282.2523">answer + refs</text></g><!--link API to VS--><g class="link" data-entity-1="API" data-entity-2="VS" data-source-line="14" data-uid="lnk11" id="link_API_VS"><path d="M194.11,370.57 C215.62,395.25 244.8784,428.8063 269.0484,456.5463" fill="none" id="API-to-VS" style="stroke:#444444;stroke-width:2;"/><polygon fill="#444444" points="272.99,461.07,270.0935,451.6567,269.7054,457.3002,264.0618,456.9121,272.99,461.07" style="stroke:#444444;stroke-width:2;"/><text fill="#000000" font-family="Padauk" font-size="13" lengthAdjust="spacing" textLength="96.9795" x="238.98" y="413.9023">nearest-neighbors</text></g><!--link API to LLM--><g class="link" data-entity-1="API" data-entity-2="LLM" data-source-line="15" data-uid="lnk12" id="link_API_LLM"><path d="M120.98,349.67 C86.91,355.25 44.59,368.56 22.48,400.08 C6,423.57 21.7282,442.9264 48.3082,460.3064" fill="none" id="API-to-LLM" style="stroke:#444444;stroke-width:2;"/><polygon fill="#444444" points="53.33,463.59,47.9864,455.3168,49.1452,460.8537,43.6083,462.0124,53.33,463.59" style="stroke:#444444;stroke-width:2;"/><text fill="#000000" font-family="Padauk" font-size="13" lengthAdjust="spacing" textLength="105.0029" x="23.48" y="413.9023">{prompt + context}</text></g><!--link LLM to API--><g class="link" data-entity-1="LLM" data-entity-2="API" data-source-line="16" data-uid="lnk13" id="link_LLM_API"><path d="M136.12,450.83 C145.23,424.51 154.3979,398.0001 161.9279,376.2401" fill="none" id="LLM-to-API" style="stroke:#444444;stroke-width:2;"/><polygon fill="#444444" points="163.89,370.57,157.1667,377.7671,162.2549,375.2951,164.7269,380.3832,163.89,370.57" style="stroke:#444444;stroke-width:2;"/><text fill="#000000" font-family="Padauk" font-size="13" lengthAdjust="spacing" textLength="37.9971" x="153.67" y="413.9023">answer</text></g><!--link MD to ING--><g class="link" data-entity-1="MD" data-entity-2="ING" data-source-line="19" data-uid="lnk15" id="link_MD_ING"><path d="M389.48,238.39 C389.48,267.53 389.48,301.78 389.48,323.11" fill="none" id="MD-to-ING" style="stroke:#444444;stroke-width:2;"/><polygon fill="#444444" points="389.48,329.11,393.48,320.11,389.48,324.11,385.48,320.11,389.48,329.11" style="stroke:#444444;stroke-width:2;"/><text fill="#000000" font-family="Padauk" font-size="13" lengthAdjust="spacing" textLength="63.6289" x="395.2788" y="282.2523">file-watcher</text></g><!--link ING to VS--><g class="link" data-entity-1="ING" data-entity-2="VS" data-source-line="20" data-uid="lnk16" id="link_ING_VS"><path d="M382.35,360.38 C374.79,375.7 362.31,400.36 350.48,421.08 C342.94,434.28 337.4089,443.4202 329.5289,455.8702" fill="none" id="ING-to-VS" style="stroke:#444444;stroke-width:2;"/><polygon fill="#444444" points="326.32,460.94,334.5132,455.4745,328.994,456.7151,327.7534,451.196,326.32,460.94" style="stroke:#444444;stroke-width:2;"/><text fill="#000000" font-family="Padauk" font-size="13" lengthAdjust="spacing" textLength="117.6475" x="362.72" y="413.9023">chunks + embeddings</text></g><!--SRC=[JP5BJyCm48Jl_XLBJY2KvC2j4Y2agX2fvLMrN7hPsDl4QcAdVhGWn7zdaqBRIoBFjpCUsnVQo2OgYgw1EeJEZ_BSuJwhTAXZ6JqvQKqW4p9fsxnpTaSsbPXhnPeENxcZjSzhGkNp5hNv6ybqR1iXK0RhOC4fWksTDMo2v9rOXqMnCfTB7UWg0VIyF1-Pe0zw_GKFhyL0-N-EbzG7hyoSlpGCBET2OS0IFK4ojj9pUDQgG_PiB6HZeu9asc2BSCDmfn5Ucc795PycAqvMdTKc73pJwKni8qMEAqn5Fi27THjo0ooU7uNeZmLfUiVLOGG9l4MUqjOaWeLUvz8CSlIR- -rjbcMY5tgmdBDk21qRKaEwgalh_17prio_-IRRBi0r32_m6Nv43qx1QFoUB_RVjJXfxEcVHOZPU41STsYurWsbUmoovdE8NZssaNKq6yz6QajIIflA_m80]--></g></svg>